<?xml version="1.0" encoding="UTF-8" standalone="no"?>
<svg
   xmlns:dc="http://purl.org/dc/elements/1.1/"
   xmlns:cc="http://creativecommons.org/ns#"
   xmlns:rdf="http://www.w3.org/1999/02/22-rdf-syntax-ns#"
   xmlns:svg="http://www.w3.org/2000/svg"
   xmlns="http://www.w3.org/2000/svg"
   xmlns:sodipodi="http://sodipodi.sourceforge.net/DTD/sodipodi-0.dtd"
   xmlns:inkscape="http://www.inkscape.org/namespaces/inkscape"
   id="Wortbildmarke"
   viewBox="0 0 113.5 113.4"
   version="1.1"
   sodipodi:docname="MPG_Logo_Minerva_RGB_mpg_green_Neu.svg"
   inkscape:version="0.92.4 (5da689c313, 2019-01-14)">
  <metadata
     id="metadata3894">
    <rdf:RDF>
      <cc:Work
         rdf:about="">
        <dc:format>image/svg+xml</dc:format>
        <dc:type
           rdf:resource="http://purl.org/dc/dcmitype/StillImage" />
      </cc:Work>
    </rdf:RDF>
  </metadata>
  <sodipodi:namedview
     pagecolor="#ffffff"
     bordercolor="#666666"
     borderopacity="1"
     objecttolerance="10"
     gridtolerance="10"
     guidetolerance="10"
     inkscape:pageopacity="0"
     inkscape:pageshadow="2"
     inkscape:window-width="3840"
     inkscape:window-height="2050"
     id="namedview3892"
     showgrid="false"
     inkscape:zoom="8.3245149"
     inkscape:cx="84.135035"
     inkscape:cy="83.766706"
     inkscape:window-x="-12"
     inkscape:window-y="2508"
     inkscape:window-maximized="1"
     inkscape:current-layer="Wortbildmarke" />
  <defs
     id="defs3845">
    <style id="style3843">
      .cls-minerva {
        fill: #006c66;
      }
      @media (prefers-color-scheme: dark) {
        .cls-minerva {
          fill: rgba(255, 255, 255, 0.87);
        }
      }
    </style>
  </defs>
  <title
     id="title3847">MPG_Logo_Minerva_RGB_mpg_green</title>
  <path
     class="cls-minerva"
     d="M 56.915057,0.57953624 A 56.175775,56.175775 0 1 0 113.09083,56.755311 56.307953,56.307953 0 0 0 56.915057,0.57953624 Z m 0,110.89759376 A 54.721814,54.721814 0 1 1 111.50469,56.755311 54.853992,54.853992 0 0 1 56.915057,111.47713 Z"
     id="path3849"
     inkscape:connector-curvature="0"
     style="stroke-width:1.32178283" />
  <path
     class="cls-minerva"
     d="m 89.827453,52.525606 c -0.79307,-1.718317 -0.264357,-2.775744 -0.528713,-3.965349 -0.264357,-1.189604 -1.453962,-3.700992 -2.247032,-5.683666 -0.793069,-1.982675 1.982675,-0.793071 0.264356,-4.097528 -0.132178,-0.132178 2.37921,-1.057426 -0.132178,-3.0401 a 15.861396,15.861396 0 0 1 -3.172279,-3.568815 0.52871318,0.52871318 0 0 1 0,-0.660891 c 1.453961,-1.321783 1.453961,-3.040101 0,-3.965348 -1.45396,-0.925249 -2.379209,0 -3.568814,0.660891 -1.189604,0.660891 -0.660891,0.528713 -1.057425,0.264356 l -0.925249,-0.528713 a 4.2297054,4.2297054 0 0 0 1.58614,-3.040101 8.1950542,8.1950542 0 0 0 -5.41931,0.528713 0.13217829,0.13217829 0 0 0 -0.132178,-0.132178 3.7009922,3.7009922 0 0 0 0.396534,-3.700992 v 0 a 38.992596,38.992596 0 0 1 6.608915,-7.137627 v 0 c 0.132178,-0.132179 0.264356,-0.264357 0,-0.396536 L 80.839329,13.665187 A 50.227751,50.227751 0 0 0 56.915057,7.4528082 49.302504,49.302504 0 0 0 7.4803754,56.755311 50.227751,50.227751 0 0 0 28.496724,97.201874 l 1.58614,0.92524 h 0.528712 v -0.26435 c 0.132179,-0.13218 0.264358,-0.26436 0.264358,-0.39654 0,-0.13218 -0.528714,-0.66089 -1.189605,-1.58614 a 15.46486,15.46486 0 0 1 -2.511388,-8.19505 12.028224,12.028224 0 0 1 2.37921,-7.26981 c 1.982674,2.11485 6.344558,5.81585 6.212379,9.25248 -0.132178,3.43664 -3.700992,3.70099 -2.907922,6.60892 0.793069,2.90792 1.850496,1.05742 2.114853,2.37921 a 5.1549535,5.1549535 0 0 0 5.022775,3.568816 c 0.396534,0 0.660891,0.26436 1.321783,0.92525 0.660891,0.66089 3.304457,0.92525 4.361883,0.66089 1.057427,-0.26436 2.247032,0.79307 4.361884,0.52871 2.114852,-0.26435 3.172279,-0.52871 4.361884,-0.52871 a 149.36147,149.36147 0 0 1 19.29803,0.92525 c 1.189605,0.26435 1.58614,-0.26436 1.057427,-1.32179 a 14.936147,14.936147 0 0 1 -1.453961,-13.350006 16.522287,16.522287 0 0 0 11.63169,-2.11485 6.0802016,6.0802016 0 0 0 2.643566,-5.02278 18.108426,18.108426 0 0 1 -0.264358,-3.700992 c 0.396536,-1.453962 0.660893,-1.453962 1.057427,-1.718318 0.396535,-0.264357 0.528713,-2.37921 0.264357,-2.511388 a 1.7183178,1.7183178 0 0 0 0.528713,-2.511387 c -0.264357,-0.264358 -1.321783,-3.304458 -0.132178,-3.833172 a 33.30893,33.30893 0 0 1 4.361883,-1.718317 2.3792093,2.3792093 0 0 0 1.189605,-3.17228 C 93.924979,61.778086 89.959631,52.789963 89.827453,52.525606 Z M 35.237817,96.408794 c -0.264356,0.13218 -1.58614,0.13218 -1.321783,-1.45396 0.264356,-1.58614 1.321783,-1.32178 1.850496,-0.79307 0.528714,0.52872 -0.396535,1.45397 -0.528713,2.24703 z M 81.896755,28.997869 c 0.660892,-0.396535 1.321783,-0.528713 1.718317,-0.132178 0.396535,0.396536 -1.586139,2.114853 -0.925247,3.304457 a 18.637139,18.637139 0 0 0 3.965348,4.494063 c 0.660891,0.396534 0.793071,1.586139 -1.718317,2.114852 -2.511387,0.528714 -12.689117,3.172279 -17.976249,8.855946 -5.287131,5.683667 -10.970797,16.25793 -11.499511,14.936148 -0.528713,-1.321784 -1.982674,-1.453962 -1.718318,-1.850496 9.516837,-16.522287 24.585163,-29.47576 28.153977,-31.722792 z m 4.361884,11.63169 c -0.528713,1.586139 -4.890597,3.040101 -4.758419,1.850497 0.132178,-1.189605 0.132178,-1.057427 0.396535,-1.189605 0.264356,-0.132178 1.850496,-0.528713 3.965349,-1.057427 2.114853,-0.528713 0.528713,0 0.396535,0.396535 z m -11.102977,2.907923 c 0,-0.660891 4.62624,-2.247031 4.758418,-1.718318 0.132179,0.528714 -0.925248,3.172279 -2.511387,3.700992 -1.586139,0.528714 -2.511388,0.396536 -2.37921,0.132178 a 10.706442,10.706442 0 0 0 0.132179,-2.114852 z m -10.83862,24.452984 c -2.114853,1.189605 -3.304457,-1.321783 -3.568815,-1.718317 a 1.8504961,1.8504961 0 0 1 -0.264356,-1.718318 13.085651,13.085651 0 0 0 -0.264357,-4.890597 c -0.264356,-1.453962 2.643567,-5.022775 3.304458,-5.551488 0.660892,-0.528714 1.718318,0.264356 1.850496,1.321782 a 4.2297054,4.2297054 0 0 1 -2.114853,3.833171 c -1.453961,1.057426 -1.718317,2.379209 -1.453961,2.775744 a 0.79306977,0.79306977 0 0 0 1.057427,-0.528713 c 0.793069,-1.718318 3.172279,-2.643567 3.568814,-3.568814 a 5.5514883,5.5514883 0 0 0 0.132178,-2.907923 c -0.132178,-0.660891 0.396534,-0.793069 0.793069,-0.660891 0.396536,0.132178 0.79307,0.793069 1.057427,1.453962 1.453961,3.965348 -2.379209,6.476736 -3.040101,7.401984 -0.660891,0.925248 0.660892,3.700992 -1.057426,4.758418 z M 67.6215,52.393428 c -1.189605,0.793069 -2.775745,-0.264357 -2.511389,-0.79307 a 26.832193,26.832193 0 0 1 6.080202,-5.948024 c 1.850496,-1.057426 2.114853,-1.189604 2.247031,-0.528713 a 5.9480232,5.9480232 0 0 1 -1.453961,3.96535 4.0975271,4.0975271 0 0 1 -3.040101,1.45396 c -0.528713,0 -0.396535,1.189605 -1.321782,1.850497 z M 57.311592,66.007792 c -0.528713,0 -0.793069,-1.057427 -0.660891,-1.453961 a 21.67724,21.67724 0 0 1 2.114852,-3.436636 c 0.132178,-0.264356 0.396536,-0.132178 0.396536,0.132178 0,0.264357 0,5.287132 -1.850497,4.758419 z M 74.494771,26.354304 a 11.499512,11.499512 0 0 1 3.965348,-0.793071 c 0.528713,0 -0.925247,2.511389 -3.436636,3.568815 a 13.614364,13.614364 0 0 1 -4.758418,1.321782 c -0.396535,-0.264356 2.247031,-3.172279 4.229706,-4.097526 z M 29.950685,68.254823 A 4.2297054,4.2297054 0 0 0 28.364546,66.93304 10.574264,10.574264 0 0 0 26.51405,71.691458 33.573286,33.573286 0 0 1 22.416522,56.755311 C 21.755631,37.853815 37.617027,22.521134 56.915057,22.653312 a 30.533185,30.533185 0 0 1 12.028225,2.379209 19.694566,19.694566 0 0 0 -1.982675,3.568813 16.918821,16.918821 0 0 1 -0.132178,-2.379208 c 0,-0.396535 -2.775744,0.396534 -5.287131,4.361883 a 13.482186,13.482186 0 0 0 -1.189605,2.907922 8.1950542,8.1950542 0 0 0 -0.396535,-2.643565 8.062876,8.062876 0 0 0 -4.62624,4.62624 13.614364,13.614364 0 0 0 -0.528713,1.850496 C 54.668027,36.267676 54.40367,35.606784 54.271492,35.606784 a 8.4594108,8.4594108 0 0 0 -4.626241,4.758418 9.5168371,9.5168371 0 0 0 -0.528714,2.511389 c -0.264356,-1.321784 -0.793069,-1.982675 -0.925247,-1.850496 -0.132178,0.132178 -3.040101,1.850496 -4.097528,5.154953 a 7.2698062,7.2698062 0 0 0 -0.396534,2.247031 3.4366357,3.4366357 0 0 0 -1.189604,-1.718318 c -0.264358,0.132178 -3.304458,2.907923 -3.700993,5.815845 a 8.4594108,8.4594108 0 0 0 0,3.172279 14.010899,14.010899 0 0 1 -1.58614,-2.643566 8.1950542,8.1950542 0 0 0 -3.172279,5.815844 11.63169,11.63169 0 0 0 0.396536,3.17228 C 33.651677,60.588481 32.462072,59.795412 32.329894,59.92759 a 9.6490154,9.6490154 0 0 0 -2.643565,5.948024 4.8905968,4.8905968 0 0 0 0.264356,2.379209 z m 39.653489,-42.69359 a 10.442085,10.442085 0 0 1 4.361883,-3.040099 c 0.264357,0.264356 -0.396535,3.040099 -2.114853,4.626239 a 15.993574,15.993574 0 0 1 -4.62624,3.304457 c -0.264357,0 0.925248,-3.172279 2.37921,-4.890597 z m -5.022775,7.005451 a 10.177729,10.177729 0 0 0 -2.907923,3.436635 c -0.396535,0.528713 -1.057427,-2.643566 0.79307,-5.683667 a 10.970798,10.970798 0 0 1 3.568814,-3.304457 c -0.264356,0.79307 1.057426,3.568814 -1.453961,5.551489 z m -5.41931,4.097527 c -1.718318,2.643566 -1.850497,1.718317 -3.833171,4.361884 a 13.085651,13.085651 0 0 1 0.528713,-5.022776 8.8559457,8.8559457 0 0 1 3.304458,-3.965349 c 0.396534,-0.132178 1.057425,3.040101 0,4.626241 z m -5.815846,5.287131 c -0.925248,1.718318 -1.850496,1.321783 -3.436635,3.568814 -0.132178,0.264357 -0.528713,-1.850496 0.396534,-4.758418 a 6.4767364,6.4767364 0 0 1 3.17228,-3.700993 c 0.396534,-0.132178 0.925248,3.040101 -0.132179,4.890597 z m -5.551488,5.815846 c -0.925248,1.982674 -1.586139,2.114852 -2.643566,3.436635 -1.057427,1.321783 -1.057427,-1.982674 -0.264356,-4.758419 a 7.4019845,7.4019845 0 0 1 2.775744,-3.700992 c 0.396535,-0.396534 1.057426,2.775744 0.132178,5.022776 z m -4.494062,3.568813 a 7.9306977,7.9306977 0 0 1 -0.264356,1.58614 c -0.660892,2.24703 -2.114853,3.304457 -2.775745,4.361884 a 8.1950542,8.1950542 0 0 1 -0.925247,-3.172279 8.1950542,8.1950542 0 0 1 2.775743,-5.948024 c 0.396536,0 1.189605,1.718318 1.189605,3.172279 z m -4.62624,6.741093 a 8.062876,8.062876 0 0 1 -2.643566,5.815845 8.3272325,8.3272325 0 0 1 -1.189605,-4.097527 6.3445581,6.3445581 0 0 1 1.850496,-5.154953 c 0.264357,0.925247 1.982675,1.718317 1.982675,3.436635 z m -6.476737,3.436636 c 0.925249,0.396534 2.114854,1.850496 2.247032,4.361884 a 6.0802016,6.0802016 0 0 1 -2.511388,5.022775 c -0.396535,-1.982674 -1.321784,-2.37921 -1.321784,-4.229706 a 10.309907,10.309907 0 0 1 1.58614,-5.154953 z m 3.96535,6.741093 a 8.5915891,8.5915891 0 0 1 5.154953,-0.793069 7.0054496,7.0054496 0 0 1 -3.172279,4.361882 c -2.37921,1.189605 -5.022775,1.321784 -5.287132,1.057427 a 6.4767364,6.4767364 0 0 1 3.304458,-4.62624 z m -0.264357,-1.850496 a 8.8559457,8.8559457 0 0 1 3.83317,-4.494063 v 0 a 10.706442,10.706442 0 0 1 5.022775,-0.793069 c 0.264357,0.132178 -0.925248,3.040101 -3.172279,4.097527 -2.24703,1.057427 -3.436635,0.396536 -5.683666,1.189605 z m 3.700992,-6.344559 c 0.132178,-0.264356 1.850496,-3.436635 3.965348,-4.361883 a 9.7811938,9.7811938 0 0 1 4.758419,-0.79307 c 0.264357,0.132178 -0.925248,2.907923 -3.304457,4.097528 -2.379209,1.189604 -5.551488,1.321782 -5.41931,1.057425 z M 44.35812,53.71521 a 13.614364,13.614364 0 0 1 4.494061,-4.494061 8.8559457,8.8559457 0 0 1 4.494062,-0.528714 c 0.264357,0.132178 -0.925248,2.907923 -3.436635,3.965349 A 12.689117,12.689117 0 0 1 44.35812,53.71521 Z m 5.815844,-6.344557 a 8.3272325,8.3272325 0 0 1 3.96535,-4.229706 7.9306977,7.9306977 0 0 1 4.758417,0 c 0.396536,0 -0.793069,2.379209 -3.568813,3.436636 a 11.367333,11.367333 0 0 1 -5.154954,0.79307 z m 6.344559,-6.080202 a 11.763868,11.763868 0 0 1 4.361884,-3.965349 10.04555,10.04555 0 0 1 4.890597,-0.132179 c 0.264356,0.132179 -1.453962,2.775745 -4.097528,3.568815 a 14.407434,14.407434 0 0 1 -5.154953,0.528713 z m 6.476736,-5.287132 c -0.264356,-0.264356 2.379209,-3.0401 4.361883,-3.833171 a 8.8559457,8.8559457 0 0 1 4.494062,-0.528713 7.9306977,7.9306977 0 0 1 -3.83317,3.568814 10.706442,10.706442 0 0 1 -5.022775,0.79307 z M 27.571477,94.426124 A 47.716364,47.716364 0 0 1 56.915057,8.9067692 47.584186,47.584186 0 0 1 78.988832,14.458258 c 0.132179,0 0.264357,0.264356 0.132179,0.264356 a 63.577759,63.577759 0 0 0 -5.551489,6.21238 37.935171,37.935171 0 0 0 -16.654465,-3.833171 39.653488,39.653488 0 0 0 -39.653488,39.653488 38.596062,38.596062 0 0 0 9.516837,25.774773 12.556938,12.556938 0 0 0 -1.057426,5.15495 13.085651,13.085651 0 0 0 1.850497,6.74109 z m 0,-13.35001 v 0 A 37.670814,37.670814 0 0 1 18.847708,56.623133 38.067349,38.067349 0 0 1 72.644275,22.124598 l -2.114854,1.453961 A 34.366357,34.366357 0 0 0 56.915057,20.802816 36.084675,36.084675 0 0 0 20.830383,56.755311 34.234179,34.234179 0 0 0 28.893259,79.225622 Z m 1.982674,-2.907919 a 6.8732712,6.8732712 0 0 1 -2.37921,-4.494063 v -0.264356 a 10.309907,10.309907 0 0 1 1.189605,-4.890597 c 0.264356,-0.264356 2.907923,1.850496 2.907923,4.626241 a 7.7985193,7.7985193 0 0 1 -1.718318,5.022775 z m 4.229705,-3.83317 a 8.7237675,8.7237675 0 0 1 5.022775,-0.660893 c -0.264357,0.132179 -1.057426,3.17228 -3.304458,4.361885 a 7.666341,7.666341 0 0 1 -4.758418,0.660891 c 1.321783,-1.453961 1.057426,-3.436636 3.040101,-4.361883 z M 36.5596,99.184544 a 7.2698062,7.2698062 0 0 1 0.264357,-3.96535 c 0.925248,-0.39653 2.643566,-0.52871 2.643566,0 0,0.52871 -0.528714,2.90792 0.264356,5.419316 -0.264356,0.39654 -2.511388,0.26436 -3.172279,-1.453966 z m 0.132178,-5.94802 c -0.132178,-1.05743 0.925249,-2.11486 0.925249,-4.36189 0,-2.24703 -3.568815,-6.74109 -5.948024,-9.252478 a 10.309907,10.309907 0 0 0 4.229706,-1.057427 c 3.436636,-1.586139 4.229705,-5.419309 4.361883,-5.551488 A 7.2698062,7.2698062 0 0 0 38.14574,72.748885 h 0.396534 a 8.3272325,8.3272325 0 0 0 4.229706,-5.948024 3.7009922,3.7009922 0 0 0 -2.114853,-0.132178 l 1.057426,-0.396534 a 7.5341627,7.5341627 0 0 0 4.494063,-5.683668 c 0,-0.132178 -0.793071,-0.264356 -1.850496,-0.264356 l 1.057425,-0.396535 a 8.8559457,8.8559457 0 0 0 4.361885,-5.551488 h -1.850496 l 2.511387,-0.79307 a 7.666341,7.666341 0 0 0 4.494062,-5.154953 c 0,-0.132179 -0.660891,-0.264357 -1.58614,-0.396535 a 8.062876,8.062876 0 0 0 2.379209,-0.660891 7.5341627,7.5341627 0 0 0 4.758419,-4.494062 l -1.982674,-0.528713 a 9.1203023,9.1203023 0 0 0 3.436635,-0.660892 c 3.833172,-1.321784 5.154954,-3.568814 5.287132,-4.626241 A 3.3044574,3.3044574 0 0 0 66.03536,36.664211 l 2.511387,-0.660892 A 10.309907,10.309907 0 0 0 73.7017,30.716188 l 2.114854,-0.79307 0.925247,-0.528713 0.925249,0.660891 c 0.528713,0.264356 0.660891,0.396534 0.396534,0.660892 C 65.903182,41.026095 56.915057,54.111746 52.949709,60.456303 h -0.660892 c -4.361883,-0.264356 -6.741093,4.758419 -4.890597,9.516838 -0.132179,0.925248 -2.247031,2.775744 -2.379209,2.907922 -0.132178,0.132178 -0.528713,0.793069 0.132178,0.660891 0.660891,-0.132178 2.247031,-1.586139 2.907923,-2.379209 0.660891,-0.79307 1.189605,1.189605 0.793069,1.58614 a 34.366357,34.366357 0 0 1 -7.534162,5.551488 c -1.321783,0.660892 2.24703,1.189605 8.459411,-4.361883 0.264356,-0.396536 0.793069,1.189604 1.321783,1.850496 -1.057427,3.568814 1.586139,10.309908 1.057425,12.424758 a 1.4539613,1.4539613 0 0 1 -1.453961,1.45396 c -6.080201,0.13218 -6.741093,-0.13218 -9.781193,0.66089 -3.040101,0.79307 -1.057426,1.45397 0,1.18961 1.057426,-0.26436 2.379209,-0.79307 8.988124,-0.39654 a 2.7757442,2.7757442 0 0 0 3.436635,-3.0401 c 0,-2.51138 -1.850496,-9.913369 -1.189605,-10.838617 a 2.6435659,2.6435659 0 0 0 1.850496,0.660891 c -0.132178,2.379206 3.700993,10.177726 1.982676,14.539616 -0.660892,1.58614 -3.436636,1.45396 -8.195055,0.92524 -8.195054,-0.92524 -10.83862,0.79308 -11.102977,-0.13217 z m 18.901496,5.28713 a 3.0401007,3.0401007 0 0 1 -3.965348,-3.43664 c 0.264356,-0.52871 2.379208,0.52872 3.83317,-0.39653 1.453961,-0.92525 1.850496,3.17228 0.132178,3.83317 z m -14.539612,2.379216 c -0.396535,-1.982686 -0.528713,-5.419316 0.264357,-6.212386 0.793069,-0.79307 2.643565,-0.52871 2.511387,0.13218 -0.132178,0.66089 -1.057426,4.89059 0.660892,7.534166 1.718318,2.64356 -2.775745,1.1896 -3.436636,-1.45396 z m 6.080201,2.24703 c -0.793069,-0.26436 -3.172279,-3.965356 -1.321783,-8.459416 0.264358,-0.52871 3.172279,-0.26436 3.700993,-0.13218 0.528713,0.13218 -0.396536,3.70099 3.568814,5.28713 0.528713,0.13218 0,4.758426 -5.948024,3.304466 z M 72.512096,90.592954 c -1.453961,4.75842 -2.114853,6.60892 -0.132179,11.763876 0.396536,0.66089 0.528714,1.1896 0,1.05742 -4.229705,-0.66089 -5.022775,-1.32178 -18.108425,-0.26435 -0.925249,0.13218 0.396535,-1.8505 0.132178,-3.04011 -0.264356,-1.189606 3.172279,-0.793066 3.568814,-2.643566 0.396534,-1.85049 -1.189605,-4.09753 -1.057427,-4.49406 1.850496,-3.56881 0,-7.53416 -1.586139,-14.143078 -0.132179,-0.660891 0.132178,-0.925248 0.396534,-0.660891 8.459412,8.988119 13.746544,10.838619 16.654465,11.631689 0.264358,0.13218 0.132179,0.52871 0.132179,0.79307 z m 21.280705,-24.71734 c -1.718318,1.58614 -4.494061,1.718318 -5.551488,2.643565 -1.057427,0.925249 -0.793069,1.321783 -0.132178,2.775745 0.660891,1.453961 0.528713,0.925247 -0.660891,1.321783 -1.189605,0.396534 -2.247032,3.040101 -4.626241,2.643565 -2.37921,-0.396535 -0.264356,0.396536 0,0.396536 a 3.0401007,3.0401007 0 0 0 2.511387,-0.660892 7.0054496,7.0054496 0 0 1 1.850496,-1.58614 c 0.793071,-0.396535 1.58614,-0.264356 1.718318,0.264356 0.132179,0.528714 -1.057426,1.189605 -1.45396,1.321784 -0.396536,0.132178 2.114852,1.057426 0.793069,1.982674 -1.321783,0.925248 -2.511387,-0.264357 -2.775745,-0.396535 -0.264356,-0.132178 -0.793069,-0.132178 -0.660891,0.132178 0.132179,0.264357 2.775745,0.660893 2.511387,1.189605 -1.982674,2.511386 -0.396534,4.097526 -0.925247,6.608916 -0.528713,2.51139 -4.229706,3.96535 -6.873271,4.49406 -9.384659,1.71832 -18.372783,-6.21238 -23.659915,-12.160402 0.528713,-1.189604 0.396535,-2.643566 -0.132179,-2.114853 -0.528713,0.528713 -0.264356,1.321783 -1.45396,1.58614 -1.189605,0.264356 -3.040101,-3.172279 -3.700993,-3.83317 a 7.9306977,7.9306977 0 0 1 -1.982674,-9.252481 3.4366357,3.4366357 0 0 1 6.080202,-0.528713 c 1.586139,2.379209 0.793069,3.700992 1.718317,4.361883 a 2.5113876,2.5113876 0 0 0 2.907923,0 c 1.057426,-0.264357 0.925247,2.37921 4.229705,2.247031 3.304457,-0.132178 3.172279,-5.683667 3.700992,-6.21238 4.62624,-4.494062 2.247032,-8.45941 1.453961,-9.384659 -0.793069,-0.925247 0.528714,-1.982674 0.793071,-1.982674 a 7.1376279,7.1376279 0 0 0 5.022775,-4.229705 c 0,0 4.494061,0 6.0802,-3.304457 0.528714,-0.793071 1.850498,0.925247 4.758419,-1.453962 0.396536,-0.264356 0.660892,-0.132178 0.793071,0.132179 1.982674,4.758418 2.775743,6.0802 2.643565,8.45941 -0.132178,2.379209 4.62624,11.499512 5.022775,12.292581 a 2.2470311,2.2470311 0 0 1 0,2.247032 z"
     id="path3851"
     inkscape:connector-curvature="0"
     style="stroke-width:1.32178283" />
  <path
     class="cls-minerva"
     d="m 82.954181,48.824613 c -2.643566,0 -5.683667,3.304458 -6.608914,3.700993 -0.925249,0.396535 -0.660892,0.79307 -0.132179,0.528713 0.528713,-0.264356 3.17228,-2.511388 5.815845,-3.436635 2.643566,-0.925249 1.850496,0.925247 2.643566,0.925247 0.793069,0 -0.132178,-1.850496 -1.718318,-1.718318 z"
     id="path3853"
     inkscape:connector-curvature="0"
     style="stroke-width:1.32178283" />
  <path
     class="cls-minerva"
     d="m 83.615072,51.336001 c -0.264356,0 0.132179,1.189605 -0.925247,1.189605 -1.057427,0 -4.494062,2.511387 -5.948024,3.172279 -1.453961,0.660891 -1.850496,0.79307 -1.982674,0.79307 -0.132178,0 -0.132178,0.264356 0,0.396534 6.21238,0.793071 8.723767,0.528714 8.723767,0.396536 0,-0.132179 -0.396534,-0.660892 -0.264356,-0.925249 a 5.8158449,5.8158449 0 0 0 0.132178,-3.0401 c -0.132178,-0.396535 0.925249,-0.132179 0.925249,-0.660892 0,-0.528713 -0.396536,-1.453961 -0.660893,-1.321783 z m -1.057425,5.022775 c -0.132178,0.396535 -2.907923,0.264357 -4.361884,0.132179 -1.453962,-0.132179 -1.057427,-0.132179 0.132178,-0.79307 a 11.499512,11.499512 0 0 1 3.83317,-1.850497 c 0.132178,0 0.396536,0 0.396536,0.396536 a 3.8331705,3.8331705 0 0 1 0,2.114852 z"
     id="path3855"
     inkscape:connector-curvature="0"
     style="stroke-width:1.32178283" />
  <path
     class="cls-minerva"
     d="m 90.752701,65.214722 a 18.240605,18.240605 0 0 0 -3.172279,1.321783 c -0.396536,0.264356 -2.37921,1.453961 -2.114854,-0.396535 0.264358,-1.850496 0.396536,-2.37921 0.396536,-2.775744 0,-0.396535 -0.528714,-0.396535 -0.528714,0 a 23.395558,23.395558 0 0 1 -0.396534,2.775744 1.3217829,1.3217829 0 0 0 1.850496,1.453962 21.67724,21.67724 0 0 1 3.965349,-1.850496 c 0.264356,0 0.396535,-0.528714 0,-0.528714 z"
     id="path3857"
     inkscape:connector-curvature="0"
     style="stroke-width:1.32178283" />
  <path
     class="cls-minerva"
     d="m 54.40367,72.087993 c -0.264356,-0.132178 -0.264356,0.660892 -0.660892,0.528714 -0.396535,-0.132178 -0.132178,-0.660892 -1.057426,-1.58614 -0.925248,-0.925248 -1.453961,-0.660892 -2.247031,-1.982674 -0.79307,-1.321783 -0.132179,-6.344558 1.586139,-5.815845 1.718318,0.528712 0.925249,2.775744 0.528714,4.361884 -0.396536,1.586139 1.45396,1.453961 1.58614,1.189604 0.132178,-0.264357 -0.660892,-0.528713 -0.793071,-1.057426 -0.132178,-0.528714 1.850496,-4.097528 -0.925248,-5.022775 -2.775744,-0.925249 -3.436636,1.850496 -3.172278,4.758419 a 4.0975271,4.0975271 0 0 0 2.775743,3.700991 c 1.189605,0.528713 0.264357,2.247031 1.982674,2.247031 1.718318,0 0.793071,-1.189605 0.396536,-1.321783 z"
     id="path3859"
     inkscape:connector-curvature="0"
     style="stroke-width:1.32178283" />
  <path
     class="cls-minerva"
     d="m 70.925957,18.423606 h 0.264356 l 3.436636,-4.494062 c 0.132178,0 0.132178,-0.264357 0,-0.264357 L 73.966057,13.400831 H 73.7017 l -3.436635,4.361884 a 0.26435659,0.26435659 0 0 0 0,0.396535 z"
     id="path3861"
     inkscape:connector-curvature="0"
     style="stroke-width:1.32178283" />
  <path
     class="cls-minerva"
     d="m 64.44922,16.705288 h 0.925248 l 1.982674,-5.154953 c 0,0 0,-0.264357 -0.132178,-0.264357 h -0.793069 l -2.114853,5.022776 c 0,0.132178 0,0.396534 0.132178,0.396534 z"
     id="path3863"
     inkscape:connector-curvature="0"
     style="stroke-width:1.32178283" />
  <path
     class="cls-minerva"
     d="m 57.311592,15.912219 h 0.79307 l 0.528713,-5.419311 c 0,-0.132178 -0.132178,-0.132178 -0.264357,-0.132178 h -0.528712 c -0.132179,-0.132178 -0.264357,0 -0.264357,0.132178 l -0.528714,5.419311 z"
     id="path3865"
     inkscape:connector-curvature="0"
     style="stroke-width:1.32178283" />
  <path
     class="cls-minerva"
     d="m 50.306142,16.440932 h 0.660893 a 0.39653488,0.39653488 0 0 0 0.132178,-0.264357 L 50.041786,10.889443 A 0.26435659,0.26435659 0 0 0 49.77743,10.625087 h -0.528713 a 0.26435659,0.26435659 0 0 0 -0.264358,0.264356 l 1.057427,5.287132 c 0,0.264357 0.132178,0.264357 0.264356,0.264357 z"
     id="path3867"
     inkscape:connector-curvature="0"
     style="stroke-width:1.32178283" />
  <path
     class="cls-minerva"
     d="m 43.168515,18.15925 a 0.13217829,0.13217829 0 0 0 0.264356,0 h 0.528713 c 0.132178,0 0.264358,-0.132179 0.132178,-0.264357 l -2.379209,-4.890597 h -0.264356 l -0.528713,0.264357 c -0.132179,0 -0.264357,0.132178 -0.132179,0.264356 z"
     id="path3869"
     inkscape:connector-curvature="0"
     style="stroke-width:1.32178283" />
  <path
     class="cls-minerva"
     d="m 36.5596,21.19935 c 0,0.132179 0.132178,0.132179 0.264357,0 l 0.528712,-0.264356 c 0.132179,0 0.132179,-0.264357 0,-0.264357 l -3.568813,-4.229705 h -0.264357 l -0.528713,0.264356 a 0.52871318,0.52871318 0 0 0 -0.132178,0.396535 z"
     id="path3871"
     inkscape:connector-curvature="0"
     style="stroke-width:1.32178283" />
  <path
     class="cls-minerva"
     d="m 30.34722,25.561233 h 0.264356 L 31.14029,25.164699 A 0.52871318,0.52871318 0 0 0 31.008112,24.768164 L 26.51405,21.595885 h -0.264357 l -0.528713,0.528713 c -0.132179,0 0,0.264356 0,0.264356 z"
     id="path3873"
     inkscape:connector-curvature="0"
     style="stroke-width:1.32178283" />
  <path
     class="cls-minerva"
     d="m 24.92791,31.112723 h 0.264357 l 0.396534,-0.528714 c 0.132179,-0.132179 0,-0.264357 -0.132178,-0.396535 L 20.30167,28.2048 h -0.264357 l -0.396534,0.528713 a 0.26435659,0.26435659 0 0 0 0,0.396535 z"
     id="path3875"
     inkscape:connector-curvature="0"
     style="stroke-width:1.32178283" />
  <path
     class="cls-minerva"
     d="m 15.014538,36.928567 5.683666,0.660892 c 0,0.132178 0.132179,0 0.132179,0 l 0.396535,-0.660892 c 0,-0.132178 0,-0.264356 -0.264356,-0.264356 l -5.551489,-0.79307 c -0.132178,0 -0.264357,0 -0.264357,0.132178 l -0.264356,0.528713 c -0.132178,0.132179 0,0.264357 0.132178,0.396535 z"
     id="path3877"
     inkscape:connector-curvature="0"
     style="stroke-width:1.32178283" />
  <path
     class="cls-minerva"
     d="m 11.974437,45.387978 5.683668,-0.528713 a 0.13217829,0.13217829 0 0 0 0.132178,-0.132178 l 0.264356,-0.660891 a 0.26435659,0.26435659 0 0 0 -0.264356,-0.264358 l -5.683668,0.528714 h -0.264356 c 0,0.264356 -0.132178,0.396535 -0.132178,0.660891 a 0.26435659,0.26435659 0 0 0 0.264356,0.396535 z"
     id="path3879"
     inkscape:connector-curvature="0"
     style="stroke-width:1.32178283" />
  <path
     class="cls-minerva"
     d="m 16.336321,52.261249 v -0.660891 c 0,-0.264357 -0.132178,-0.396535 -0.264356,-0.264357 l -5.551489,1.982675 c -0.132178,0 -0.132178,0 -0.132178,0.132178 a 1.1896046,1.1896046 0 0 0 -0.132178,0.660892 0.26435659,0.26435659 0 0 0 0.264356,0.264356 l 5.683667,-1.982674 z"
     id="path3881"
     inkscape:connector-curvature="0"
     style="stroke-width:1.32178283" />
  <path
     class="cls-minerva"
     d="m 16.204143,59.92759 a 1.7183178,1.7183178 0 0 1 -0.132178,-0.793069 c 0,-0.132178 -0.132178,-0.264358 -0.264358,-0.132178 L 10.652654,62.3068 v 0.925248 a 0.26435659,0.26435659 0 0 0 0.396535,0.132178 l 5.022776,-3.304458 z"
     id="path3883"
     inkscape:connector-curvature="0"
     style="stroke-width:1.32178283" />
  <path
     class="cls-minerva"
     d="m 17.393747,67.461754 a 5.6836666,5.6836666 0 0 1 -0.132178,-0.660893 0.26435659,0.26435659 0 0 0 -0.396535,-0.132178 l -4.097526,4.626241 a 0.13217829,0.13217829 0 0 0 -0.132179,0.132178 2.2470311,2.2470311 0 0 1 0.264357,0.660891 c 0.132178,0.132178 0.264356,0.264357 0.396534,0.132178 l 4.097527,-4.494061 z"
     id="path3885"
     inkscape:connector-curvature="0"
     style="stroke-width:1.32178283" />
  <path
     class="cls-minerva"
     d="m 19.508601,74.335025 -2.907923,5.419309 v 0.264357 l 0.396534,0.660893 h 0.396535 l 2.907923,-5.55149 v 0 L 19.905135,74.467203 Q 19.772957,73.93849 19.508601,74.335025 Z"
     id="path3887"
     inkscape:connector-curvature="0"
     style="stroke-width:1.32178283" />
  <path
     class="cls-minerva"
     d="m 23.606127,80.547404 c -0.132178,-0.26436 -0.396534,-0.13218 -0.396534,0 l -1.58614,6.47674 h 0.132178 l 0.396535,0.52871 H 22.5487 l 1.58614,-6.34456 v -0.13218 c -0.264356,-0.13217 -0.396535,-0.39653 -0.528713,-0.52871 z"
     id="path3889"
     inkscape:connector-curvature="0"
     style="stroke-width:1.32178283" />
</svg>
